<?xml version="1.0" encoding="UTF-8"?>
<svg id="Layer_2" data-name="Layer 2" xmlns="http://www.w3.org/2000/svg" viewBox="0 0 347.2 100.52">
  <defs>
    <style>
      .cls-1 {
        fill: #232323;
      }

      .cls-2 {
        fill: #d0b390;
      }
    </style>
  </defs>
  <g id="Layer_2-2" data-name="Layer 2">
    <g>
      <g>
        <path class="cls-2" d="M3.61,53.84c0,.48.06.84.19,1.08.13.25.4.42.81.51.41.1,1.02.14,1.83.14.05,0,.07.05.07.14s-.02.14-.07.14c-.51,0-1.06,0-1.65-.02-.59-.02-1.24-.02-1.94-.02-.52,0-1.03,0-1.51.02-.48.02-.91.02-1.3.02-.03,0-.05-.05-.05-.14s.02-.14.05-.14c.59,0,1.02-.04,1.31-.12.29-.08.48-.24.57-.48.1-.24.14-.59.14-1.05v-11c0-.46-.05-.8-.14-1.03-.09-.23-.28-.39-.57-.48-.29-.09-.72-.13-1.31-.13-.03,0-.05-.05-.05-.14s.02-.14.05-.14c.38,0,.81.01,1.28.04s.97.04,1.5.04c.41,0,.92-.02,1.51-.07.59-.05,1.19-.07,1.79-.07.9,0,1.71.13,2.44.4.72.27,1.3.69,1.72,1.26.43.57.65,1.32.67,2.23,0,.84-.15,1.56-.46,2.16-.31.6-.72,1.1-1.24,1.49-.51.39-1.08.68-1.7.87-.62.19-1.24.29-1.85.29-.19,0-.38,0-.58-.02-.2-.02-.38-.05-.56-.1-.06-.02-.08-.07-.06-.18.02-.1.06-.15.11-.13.14.03.29.06.44.07.15.02.29.02.42.02.65,0,1.26-.14,1.83-.43.57-.29,1.03-.72,1.38-1.32.35-.59.52-1.33.52-2.22s-.16-1.6-.48-2.2c-.32-.59-.75-1.05-1.31-1.37-.56-.32-1.17-.48-1.85-.48-.52,0-.92.03-1.2.08s-.47.2-.58.44c-.11.24-.17.63-.17,1.16v10.86Z"/>
        <path class="cls-2" d="M17.06,42.95v10.88c0,.43.05.75.14.97.1.22.28.37.55.44.27.07.67.11,1.21.11h2.59c.92,0,1.65-.29,2.19-.87.54-.58.89-1.33,1.05-2.27,0-.05.04-.07.13-.06.09,0,.13.04.13.08-.05.43-.09.95-.14,1.56-.05.61-.07,1.18-.07,1.7,0,.24-.12.36-.36.36h-10.98s-.05-.05-.05-.14.02-.14.05-.14c.57,0,1-.04,1.3-.12.29-.08.49-.24.58-.48.1-.24.14-.59.14-1.05v-11c0-.46-.05-.8-.14-1.03-.09-.23-.29-.39-.58-.48-.29-.09-.72-.13-1.3-.13-.03,0-.05-.05-.05-.14s.02-.14.05-.14c.38,0,.81.01,1.28.04.48.02.97.04,1.5.04.55,0,1.07-.01,1.54-.04s.89-.04,1.26-.04c.05,0,.07.05.07.14s-.02.14-.07.14c-.57,0-1,.04-1.3.13-.29.09-.49.25-.58.49-.1.24-.14.59-.14,1.05Z"/>
        <path class="cls-2" d="M42.66,55.57c.06,0,.1.05.1.14s-.03.14-.1.14c-.46,0-.93-.02-1.4-.05s-.94-.05-1.38-.05c-.49,0-.92.02-1.28.05s-.77.05-1.21.05c-.06,0-.1-.05-.1-.14s.03-.14.1-.14c.84,0,1.36-.12,1.57-.37.21-.25.15-.71-.17-1.39l-5.28-11.14.59-.74-4.61,10.91c-.4.97-.42,1.66-.07,2.09.35.43,1.04.64,2.07.64.08,0,.12.05.12.14s-.04.14-.12.14c-.48,0-.91-.02-1.31-.05s-.89-.05-1.5-.05c-.57,0-1.03.02-1.37.05-.34.03-.76.05-1.25.05-.06,0-.09-.05-.09-.14s.03-.14.09-.14c.43,0,.8-.08,1.12-.25.32-.17.61-.46.89-.88.28-.42.58-1.03.92-1.82l5.01-11.83s.09-.07.17-.07.13.02.14.07l5.61,11.81c.36.78.69,1.38.97,1.82.29.44.57.74.84.9.28.17.58.25.91.25ZM30.65,49.32l.24-.48h6.3l.17.48h-6.7Z"/>
        <path class="cls-2" d="M46.24,41.43c-.98,0-1.72.25-2.22.76s-.86,1.37-1.08,2.59c0,.03-.04.05-.13.05s-.13-.02-.13-.05c.03-.21.06-.5.09-.87.03-.37.07-.77.11-1.2.04-.43.07-.84.09-1.25.02-.4.04-.73.04-.99,0-.08.04-.12.13-.12s.13.04.13.12c0,.16.08.27.24.34.16.07.34.12.53.14.2.02.37.04.51.04,1.36.05,2.95.07,4.78.07,1.13,0,2.02-.01,2.67-.04.66-.02,1.3-.04,1.91-.04.54,0,.95-.04,1.25-.11.29-.07.48-.23.56-.49.02-.06.06-.09.14-.09s.12.03.12.09c-.02.24-.04.56-.07.97-.03.41-.06.84-.07,1.28-.02.44-.03.86-.05,1.24-.02.38-.02.67-.02.88,0,.03-.05.05-.14.05s-.14-.02-.14-.05c-.05-1.24-.3-2.1-.76-2.6-.46-.5-1.22-.75-2.28-.75-.67,0-1.16.03-1.5.09-.33.06-.55.2-.65.42-.1.21-.15.56-.15,1.03v10.95c0,.46.06.81.17,1.05.11.24.33.4.65.48.32.08.82.12,1.49.12.05,0,.07.05.07.14s-.02.14-.07.14c-.41,0-.88,0-1.4-.02-.52-.02-1.09-.02-1.71-.02-.59,0-1.14,0-1.66.02-.52.02-1,.02-1.43.02-.03,0-.05-.05-.05-.14s.02-.14.05-.14c.65,0,1.14-.04,1.49-.12.34-.08.57-.24.68-.48.11-.24.17-.59.17-1.05v-11c0-.48-.06-.82-.17-1.03-.11-.21-.33-.34-.67-.39s-.83-.07-1.5-.07Z"/>
        <path class="cls-2" d="M62.28,53.93c0,.46.05.81.14,1.05.1.24.29.4.58.48.29.08.73.12,1.3.12.05,0,.07.05.07.14s-.02.14-.07.14c-.38,0-.8,0-1.27-.02-.47-.02-.99-.02-1.56-.02-.54,0-1.05,0-1.52.02-.48.02-.9.02-1.28.02-.05,0-.07-.05-.07-.14s.02-.14.07-.14c.57,0,1.01-.04,1.31-.12.3-.08.5-.24.59-.48.1-.24.14-.59.14-1.05v-11c0-.46-.05-.8-.14-1.03-.09-.23-.29-.39-.59-.48-.3-.09-.74-.13-1.31-.13-.05,0-.07-.05-.07-.14s.02-.14.07-.14c.38,0,.81.01,1.28.04s.98.04,1.52.04c.57,0,1.09-.01,1.57-.04s.89-.04,1.26-.04c.05,0,.07.05.07.14s-.02.14-.07.14c-.57,0-1,.05-1.3.14-.29.09-.49.26-.58.5-.09.24-.14.59-.14,1.05v10.95Z"/>
        <path class="cls-2" d="M80.99,56.14s-.04.05-.12.06c-.08,0-.13,0-.17-.01l-10.93-13.24c-.54-.65-1.02-1.09-1.44-1.32s-.82-.34-1.2-.34c-.05,0-.07-.05-.07-.14s.02-.14.07-.14c.29,0,.57,0,.87.02.29.02.56.02.8.02.29,0,.55,0,.81-.02.25-.02.44-.02.57-.02.21,0,.35.09.43.27.08.18.31.5.69.96l9.51,11.67.19,2.23ZM69.01,53.27v-11.72l.55.05v11.67c0,.82.14,1.41.43,1.77.29.36.76.53,1.43.53.05,0,.07.05.07.14s-.02.14-.07.14c-.32,0-.64,0-.97-.02-.33-.02-.7-.02-1.12-.02s-.78,0-1.14.02c-.36.02-.71.02-1.05.02-.03,0-.05-.05-.05-.14s.02-.14.05-.14c.7,0,1.18-.18,1.46-.53.28-.36.42-.95.42-1.77ZM80.99,43.62v12.52l-.55-.74v-11.79c0-.82-.14-1.42-.42-1.78-.28-.36-.74-.55-1.39-.55-.03,0-.05-.05-.05-.14s.02-.14.05-.14c.32,0,.65.01.99.04.34.02.71.04,1.1.04s.76-.01,1.13-.04c.37-.02.72-.04,1.03-.04.05,0,.07.05.07.14s-.02.14-.07.14c-.68,0-1.17.18-1.46.55-.29.36-.44.96-.44,1.78Z"/>
        <path class="cls-2" d="M97.74,43.62c0-.78-.17-1.36-.51-1.75-.34-.39-.86-.58-1.56-.58-.05,0-.07-.05-.07-.14s.02-.14.07-.14c.36,0,.74.01,1.12.04.38.02.8.04,1.26.04.36,0,.74-.01,1.12-.04s.73-.04,1.05-.04c.03,0,.05.05.05.14s-.02.14-.05.14c-.63,0-1.11.19-1.43.58-.32.39-.48.97-.48,1.75v6.75c0,1.22-.23,2.26-.7,3.12-.47.86-1.12,1.53-1.96,1.98-.84.46-1.82.69-2.95.69s-2.2-.23-3.08-.69c-.88-.46-1.56-1.11-2.04-1.96-.48-.85-.72-1.84-.72-2.98v-7.6c0-.46-.05-.8-.14-1.03-.09-.23-.29-.39-.58-.48-.29-.09-.72-.13-1.3-.13-.03,0-.05-.05-.05-.14s.02-.14.05-.14c.38,0,.8.01,1.27.04.47.02.97.04,1.51.04s1.07-.01,1.54-.04.89-.04,1.24-.04c.05,0,.07.05.07.14s-.02.14-.07.14c-.57,0-1,.05-1.28.14-.29.09-.48.26-.57.5-.09.24-.14.59-.14,1.05v6.73c0,1.89.42,3.31,1.27,4.29.85.97,2.03,1.46,3.55,1.46,1.43,0,2.53-.45,3.33-1.34.79-.89,1.19-2.13,1.19-3.72v-6.77Z"/>
        <path class="cls-2" d="M104.27,53.27l.24-11.72.57.05-.24,11.67c-.02.82.12,1.41.42,1.77.29.36.83.53,1.6.53.03,0,.05.05.05.14s-.02.14-.05.14c-.35,0-.71,0-1.08-.02-.37-.02-.78-.02-1.22-.02-.41,0-.8,0-1.16.02-.36.02-.7.02-1.02.02-.03,0-.05-.05-.05-.14s.02-.14.05-.14c.67,0,1.14-.18,1.44-.53.29-.36.45-.95.46-1.77ZM120.74,55.57s.07.05.07.14-.02.14-.07.14c-.38,0-.81,0-1.29-.02-.48-.02-.99-.02-1.51-.02s-.98,0-1.41.02c-.44.02-.83.02-1.18.02-.03,0-.05-.05-.05-.14s.02-.14.05-.14c.79,0,1.3-.1,1.52-.31.22-.21.32-.65.28-1.33l-.45-11.48.78-1.09-6.18,14.33c-.02.06-.08.1-.19.1s-.18-.03-.21-.1l-5.96-12.71c-.54-1.13-1.34-1.69-2.4-1.69-.03,0-.05-.05-.05-.14s.02-.14.05-.14c.25,0,.53,0,.82.02.29.02.53.02.72.02.25,0,.49,0,.7-.02.21-.02.38-.02.49-.02.22,0,.4.07.52.21.13.14.32.48.57,1.02l5.42,11.41-.74,1.24,5.8-13.28c.08-.19.18-.34.31-.44.13-.1.26-.15.4-.15.1,0,.22,0,.38.02.16.02.35.02.57.02.43,0,.78,0,1.05-.02.27-.02.55-.02.86-.02.03,0,.05.05.05.14s-.02.14-.05.14c-.76,0-1.32.11-1.69.33-.37.22-.53.66-.5,1.31l.48,11c.02.46.07.81.17,1.05.1.24.29.4.58.48.29.08.72.12,1.29.12Z"/>
      </g>
      <g>
        <path class="cls-2" d="M232.23,53.93v-11c0-.46-.05-.8-.14-1.03-.09-.23-.29-.39-.58-.48-.29-.09-.72-.13-1.29-.13-.03,0-.05-.05-.05-.14s.02-.14.05-.14c.38,0,.81.01,1.28.04.48.02.97.04,1.5.04.57,0,1.09-.01,1.56-.04s.88-.04,1.25-.04c.05,0,.07.05.07.14s-.02.14-.07.14c-.57,0-1,.05-1.28.14-.29.09-.48.26-.58.5-.1.24-.15.59-.15,1.05v10.95c0,.46.05.81.14,1.05.09.24.29.4.58.48.29.08.73.12,1.29.12.05,0,.07.05.07.14s-.02.14-.07.14c-.38,0-.8,0-1.26-.02-.46-.02-.97-.02-1.55-.02-.52,0-1.03,0-1.51.02-.48.02-.91.02-1.3.02-.03,0-.05-.05-.05-.14s.02-.14.05-.14c.57,0,1.01-.04,1.31-.12.3-.08.5-.24.59-.48.1-.24.14-.59.14-1.05ZM232.73,49.04l6.13-6.11c.59-.6.84-1.03.75-1.27s-.54-.37-1.37-.37c-.03,0-.05-.05-.05-.14s.02-.14.05-.14c.4,0,.79.01,1.19.04.4.02.92.04,1.57.04s1.11-.01,1.47-.04.71-.04,1.05-.04c.05,0,.07.05.07.14s-.02.14-.07.14c-.57,0-1.23.13-1.97.39-.75.26-1.46.72-2.14,1.39l-6.08,5.96h-.59ZM238.2,52.41l-3.78-4.75,1.19-.95,3.47,4.42c.71.94,1.32,1.69,1.82,2.26.5.57.91,1.01,1.25,1.32s.63.52.89.64c.26.12.51.19.75.2.24.02.51.02.81.02.05,0,.07.05.07.14s-.02.14-.07.14h-2.66c-.14,0-.26,0-.34.01-.09,0-.18.01-.27.01-.22,0-.4-.04-.53-.12-.13-.08-.29-.24-.46-.48-.18-.24-.42-.59-.75-1.05-.32-.46-.78-1.07-1.37-1.83Z"/>
        <path class="cls-2" d="M250.24,53.93c0,.46.05.81.14,1.05.09.24.29.4.58.48.29.08.73.12,1.29.12.05,0,.07.05.07.14s-.02.14-.07.14c-.38,0-.8,0-1.27-.02-.47-.02-.99-.02-1.56-.02-.54,0-1.05,0-1.52.02-.48.02-.9.02-1.28.02-.05,0-.07-.05-.07-.14s.02-.14.07-.14c.57,0,1.01-.04,1.31-.12.3-.08.5-.24.59-.48.09-.24.14-.59.14-1.05v-11c0-.46-.05-.8-.14-1.03-.09-.23-.29-.39-.59-.48-.3-.09-.74-.13-1.31-.13-.05,0-.07-.05-.07-.14s.02-.14.07-.14c.38,0,.81.01,1.28.04.47.02.98.04,1.52.04.57,0,1.09-.01,1.57-.04.47-.02.89-.04,1.26-.04.05,0,.07.05.07.14s-.02.14-.07.14c-.57,0-1,.05-1.29.14-.29.09-.49.26-.58.5-.09.24-.14.59-.14,1.05v10.95Z"/>
        <path class="cls-2" d="M258.59,41.43c-.98,0-1.72.25-2.22.76s-.86,1.37-1.08,2.59c0,.03-.04.05-.13.05s-.13-.02-.13-.05c.03-.21.06-.5.09-.87.03-.37.07-.77.11-1.2.04-.43.07-.84.09-1.25.02-.4.04-.73.04-.99,0-.08.04-.12.13-.12s.13.04.13.12c0,.16.08.27.24.34.16.07.34.12.53.14.2.02.37.04.51.04,1.36.05,2.95.07,4.78.07,1.12,0,2.02-.01,2.67-.04.66-.02,1.29-.04,1.91-.04.54,0,.95-.04,1.25-.11.29-.07.48-.23.56-.49.02-.06.06-.09.14-.09s.12.03.12.09c-.02.24-.04.56-.07.97-.03.41-.06.84-.07,1.28-.02.44-.03.86-.05,1.24-.02.38-.02.67-.02.88,0,.03-.05.05-.14.05s-.14-.02-.14-.05c-.05-1.24-.3-2.1-.76-2.6-.46-.5-1.22-.75-2.28-.75-.67,0-1.16.03-1.5.09-.33.06-.55.2-.65.42-.1.21-.15.56-.15,1.03v10.95c0,.46.06.81.17,1.05.11.24.33.4.65.48.32.08.82.12,1.49.12.05,0,.07.05.07.14s-.02.14-.07.14c-.41,0-.88,0-1.4-.02-.52-.02-1.09-.02-1.71-.02-.59,0-1.14,0-1.66.02-.52.02-1,.02-1.43.02-.03,0-.05-.05-.05-.14s.02-.14.05-.14c.65,0,1.14-.04,1.49-.12.34-.08.57-.24.68-.48.11-.24.17-.59.17-1.05v-11c0-.48-.06-.82-.17-1.03-.11-.21-.33-.34-.67-.39s-.83-.07-1.5-.07Z"/>
        <path class="cls-2" d="M279.35,40.74c.67,0,1.26.03,1.77.1.52.06.99.16,1.44.3.44.13.9.32,1.35.56.11.06.18.12.2.15s.04.16.06.37l.29,2.83s-.04.06-.12.08-.13,0-.17-.06c-.36-1.31-.95-2.31-1.75-2.97s-1.85-1-3.15-1-2.52.29-3.53.88c-1.01.59-1.79,1.42-2.35,2.5-.56,1.08-.84,2.34-.84,3.8,0,1.05.18,2.02.53,2.93.36.91.85,1.71,1.49,2.4.63.69,1.36,1.22,2.17,1.6.82.38,1.68.57,2.6.57,1.32,0,2.38-.32,3.19-.96.81-.64,1.42-1.6,1.83-2.89.02-.05.07-.06.15-.05s.13.04.13.07l-.24,2.61c-.02.19-.04.31-.07.36s-.09.1-.19.17c-.82.41-1.6.69-2.33.84-.73.15-1.55.23-2.47.23-1.68,0-3.16-.33-4.46-.99-1.29-.66-2.3-1.58-3.04-2.76s-1.11-2.55-1.11-4.1c0-1.14.21-2.17.64-3.1.43-.93,1.03-1.72,1.81-2.39.78-.67,1.69-1.18,2.73-1.54,1.05-.36,2.19-.55,3.42-.55Z"/>
        <path class="cls-2" d="M289.53,53.93v-11c0-.46-.05-.8-.15-1.03-.1-.23-.3-.39-.59-.48-.29-.09-.73-.13-1.32-.13-.03,0-.05-.05-.05-.14s.02-.14.05-.14c.38,0,.81.01,1.29.04s.99.04,1.51.04c.59,0,1.12-.01,1.59-.04.47-.02.9-.04,1.28-.04.03,0,.05.05.05.14s-.02.14-.05.14c-.6,0-1.05.05-1.34.14-.29.09-.49.26-.59.5-.1.24-.15.59-.15,1.05v10.95c0,.46.05.81.14,1.05.1.24.29.4.59.48.3.08.75.12,1.35.12.03,0,.05.05.05.14s-.02.14-.05.14c-.4,0-.83,0-1.3-.02-.47-.02-.99-.02-1.58-.02-.52,0-1.03,0-1.52.02-.49.02-.93.02-1.31.02-.03,0-.05-.05-.05-.14s.02-.14.05-.14c.59,0,1.03-.04,1.33-.12.3-.08.5-.24.61-.48.1-.24.15-.59.15-1.05ZM290.21,48.37v-.5h10.62v.5h-10.62ZM300.17,42.98c0-.46-.05-.81-.14-1.05-.1-.24-.29-.4-.58-.5-.29-.1-.75-.14-1.37-.14-.05,0-.07-.05-.07-.14s.02-.14.07-.14c.38,0,.81.01,1.28.04.47.02,1.01.04,1.59.04.52,0,1.03-.01,1.52-.04s.92-.04,1.28-.04c.05,0,.07.05.07.14s-.02.14-.07.14c-.59,0-1.03.04-1.32.13-.29.09-.49.25-.59.48-.1.23-.15.57-.15,1.03v11c0,.46.05.81.15,1.05.1.24.3.4.59.48.29.08.73.12,1.32.12.05,0,.07.05.07.14s-.02.14-.07.14c-.36,0-.79,0-1.28-.02-.49-.02-1-.02-1.52-.02-.59,0-1.12,0-1.59.02-.48.02-.9.02-1.28.02-.05,0-.07-.05-.07-.14s.02-.14.07-.14c.62,0,1.07-.04,1.37-.12.29-.08.49-.24.58-.48.09-.24.14-.59.14-1.05v-10.95Z"/>
        <path class="cls-2" d="M316.33,55.86h-9.96s-.05-.05-.05-.14.02-.14.05-.14c.59,0,1.02-.04,1.31-.12.29-.08.48-.24.58-.48.1-.24.15-.59.15-1.05v-11c0-.46-.05-.8-.15-1.03-.1-.23-.3-.39-.58-.48-.29-.09-.72-.13-1.31-.13-.03,0-.05-.05-.05-.14s.02-.14.05-.14h9.55c.14,0,.21.07.21.21l.05,2.92s-.04.08-.13.08c-.09,0-.13-.01-.13-.06-.05-.86-.31-1.51-.77-1.97-.47-.46-1.07-.69-1.82-.69h-1.45c-.54,0-.95.04-1.22.12-.28.08-.47.23-.57.45s-.15.55-.15.97v10.79c0,.41.05.73.15.95.1.22.29.37.55.45.26.08.65.12,1.18.12h1.9c.76,0,1.4-.27,1.91-.82.52-.55.85-1.29,1.01-2.22,0-.05.05-.06.14-.05.1.02.14.05.14.1-.06.41-.12.91-.15,1.5-.04.59-.06,1.13-.06,1.64,0,.24-.13.36-.38.36ZM315,50.32c0-.7-.17-1.2-.51-1.5-.34-.3-.91-.45-1.7-.45h-3.57v-.5h3.64c.76,0,1.3-.13,1.63-.39.32-.26.49-.69.49-1.27,0-.03.05-.05.14-.05s.14.02.14.05c0,.48,0,.84-.01,1.11s-.01.53-.01.82c0,.36,0,.72.02,1.07.02.35.02.72.02,1.12,0,.03-.05.05-.14.05s-.14-.02-.14-.05Z"/>
        <path class="cls-2" d="M333.65,56.14s-.04.05-.12.06c-.08,0-.13,0-.17-.01l-10.93-13.24c-.54-.65-1.02-1.09-1.44-1.32s-.82-.34-1.2-.34c-.05,0-.07-.05-.07-.14s.02-.14.07-.14c.29,0,.57,0,.87.02.29.02.56.02.8.02.29,0,.55,0,.81-.02.25-.02.44-.02.57-.02.21,0,.35.09.43.27.08.18.31.5.69.96l9.51,11.67.19,2.23ZM321.68,53.27v-11.72l.55.05v11.67c0,.82.14,1.41.43,1.77.29.36.76.53,1.43.53.05,0,.07.05.07.14s-.02.14-.07.14c-.32,0-.64,0-.97-.02-.33-.02-.7-.02-1.12-.02s-.78,0-1.14.02c-.36.02-.71.02-1.05.02-.03,0-.05-.05-.05-.14s.02-.14.05-.14c.7,0,1.18-.18,1.46-.53.28-.36.42-.95.42-1.77ZM333.65,43.62v12.52l-.55-.74v-11.79c0-.82-.14-1.42-.42-1.78-.28-.36-.74-.55-1.39-.55-.03,0-.05-.05-.05-.14s.02-.14.05-.14c.32,0,.65.01.99.04s.71.04,1.11.04.76-.01,1.13-.04.72-.04,1.03-.04c.05,0,.07.05.07.14s-.02.14-.07.14c-.68,0-1.17.18-1.46.55-.29.36-.44.96-.44,1.78Z"/>
        <path class="cls-2" d="M340.26,43.79c0,.65.16,1.21.49,1.68.32.47.74.88,1.25,1.22.51.35,1.05.7,1.62,1.05.59.33,1.15.69,1.7,1.07.55.38,1,.83,1.35,1.35.36.52.53,1.16.53,1.92s-.19,1.45-.57,2.06c-.38.61-.93,1.1-1.65,1.46-.72.36-1.61.55-2.67.55-.38,0-.76-.03-1.13-.08-.37-.06-.74-.15-1.12-.27-.37-.13-.74-.29-1.11-.48-.08-.05-.13-.11-.15-.18-.02-.07-.04-.16-.06-.27l-.31-3.23c-.02-.08.02-.12.11-.13s.14.02.15.08c.11.48.27.96.47,1.45.21.49.48.94.81,1.35s.74.74,1.21,1c.48.25,1.03.38,1.66.38.46,0,.91-.09,1.34-.26.44-.17.79-.46,1.07-.86.28-.4.42-.93.42-1.62,0-.78-.17-1.42-.51-1.94-.34-.51-.77-.96-1.3-1.34-.52-.38-1.08-.74-1.66-1.07-.56-.35-1.09-.7-1.6-1.07-.51-.36-.94-.8-1.26-1.3-.32-.5-.49-1.12-.49-1.87,0-.84.21-1.53.64-2.08.43-.55.98-.95,1.66-1.22.68-.27,1.39-.4,2.11-.4.44,0,.9.04,1.38.13.48.09.94.23,1.4.44.13.05.22.11.27.18.06.07.08.15.08.23l.17,2.71c0,.06-.04.1-.12.11-.08,0-.13-.02-.17-.08-.03-.32-.12-.67-.26-1.06-.14-.39-.35-.76-.62-1.11-.27-.35-.61-.63-1.02-.86s-.91-.33-1.5-.33c-.62,0-1.12.13-1.51.39-.39.26-.67.59-.86,1-.18.4-.27.84-.27,1.3Z"/>
      </g>
      <g>
        <ellipse class="cls-1" cx="175.48" cy="50.26" rx="31.88" ry="39.33"/>
        <path class="cls-2" d="M175.48,5.22c-20.16,0-36.5,20.16-36.5,45.04s16.34,45.04,36.5,45.04,36.5-20.16,36.5-45.04S195.64,5.22,175.48,5.22ZM196,67.71c-.43,0-.76,0-1.02.03-.26.02-.52.03-.78.03-.46,0-.86-.09-1.17-.26-.32-.18-.7-.54-1.14-1.09-.45-.56-1.07-1.39-1.85-2.46-.78-1.08-1.85-2.49-3.25-4.32l-8.27-10.61-1.76,1.74v12.53c0,1.09.11,1.94.32,2.51.22.6.68,1,1.37,1.2.66.19,1.66.28,2.98.29,0,0,.04.03.04.21s-.04.21-.04.21c-.95,0-1.99-.02-3.08-.06-1.14-.04-2.38-.06-3.7-.06-1.24,0-2.48.02-3.67.06-1.13.04-3.1.06-4.1.06h-.08c-1.15,0-3.41-.02-4.83-.06-1.42-.04-2.96-.06-4.57-.06-1.21,0-2.43.02-3.62.06-1.13.04-2.19.06-3.13.06,0-.03-.02-.09-.02-.21s.01-.19.02-.21c1.3,0,2.29-.1,2.94-.28.69-.2,1.15-.6,1.37-1.2.21-.57.32-1.42.32-2.51v-25.95c0-1.09-.11-1.93-.32-2.48-.22-.58-.68-.98-1.37-1.2-.66-.21-1.65-.31-2.95-.31,0-.03-.02-.09-.02-.21s.01-.19.02-.21c.93,0,1.97.03,3.1.08,1.15.06,2.36.08,3.59.08.97,0,2.17-.06,3.57-.17,1.39-.11,2.81-.17,4.22-.17,2.14,0,4.1.32,5.81.95,1.71.63,3.09,1.61,4.12,2.93,1.02,1.32,1.56,3.07,1.6,5.19,0,1.91-.35,3.59-1.05,4.99-.7,1.4-1.66,2.57-2.85,3.49-1.2.92-2.54,1.61-4,2.05-1.46.44-2.91.67-4.31.67-.45,0-.9-.02-1.36-.06-.45-.04-.89-.11-1.3-.22-.03,0-.11-.03-.05-.27.05-.19.1-.22.1-.22.34.08.69.13,1.05.17.35.04.67.06.94.06,1.43,0,2.78-.34,3.98-1.02,1.21-.68,2.21-1.74,2.96-3.16.75-1.41,1.14-3.2,1.14-5.3s-.35-3.76-1.05-5.16c-.7-1.4-1.69-2.49-2.93-3.24-1.25-.76-2.7-1.14-4.32-1.14-1.05,0-1.88.08-2.47.23-.62.16-1.05.54-1.29,1.14-.23.57-.34,1.46-.34,2.62v25.61c0,1.14.15,2.01.43,2.6.3.61.92,1.04,1.85,1.27.93.23,3.25.34,5,.34h.08c1.13,0,3.19-.08,3.94-.28.71-.2,1.19-.6,1.43-1.19.23-.57.35-1.42.35-2.51v-9.47l15.88-16.01c1.47-1.47,2.05-2.56,1.77-3.33-.28-.77-1.39-1.15-3.37-1.15,0,0-.04-.03-.04-.21s.04-.21.04-.21c.93,0,1.89.03,2.85.08.97.06,2.27.08,3.87.08s2.82-.03,3.73-.08c.9-.06,1.77-.08,2.59-.08h.01s.04.03.04.21-.04.21-.04.21c-1.47,0-3.15.37-5.01,1.1-1.86.73-3.62,1.92-5.23,3.53l-8.16,8.07,8.21,10.7c1.59,2.12,2.97,3.87,4.09,5.22,1.12,1.34,2.08,2.39,2.84,3.12.77.73,1.46,1.27,2.04,1.59.59.33,1.18.51,1.73.55.54.04,1.16.06,1.83.06h0s.04.04.04.21-.04.21-.04.21h-6.28Z"/>
        <path class="cls-2" d="M175.48,0c-22.51,0-40.83,22.55-40.83,50.26s18.32,50.26,40.83,50.26,40.83-22.55,40.83-50.26S197.99,0,175.48,0ZM175.48,99.53c-21.97,0-39.84-22.1-39.84-49.27S153.51.99,175.48.99s39.84,22.1,39.84,49.27-17.87,49.27-39.84,49.27Z"/>
      </g>
    </g>
  </g>
</svg>